<svg xmlns="http://www.w3.org/2000/svg" width="93.969" height="99" viewBox="0 0 93.969 99">
  <metadata><?xpacket begin="﻿" id="W5M0MpCehiHzreSzNTczkc9d"?>
<x:xmpmeta xmlns:x="adobe:ns:meta/" x:xmptk="Adobe XMP Core 5.6-c140 79.160451, 2017/05/06-01:08:21        ">
   <rdf:RDF xmlns:rdf="http://www.w3.org/1999/02/22-rdf-syntax-ns#">
      <rdf:Description rdf:about=""/>
   </rdf:RDF>
</x:xmpmeta>
                                                                                                    
                                                                                                    
                                                                                                    
                                                                                                    
                                                                                                    
                                                                                                    
                                                                                                    
                                                                                                    
                                                                                                    
                                                                                                    
                                                                                                    
                                                                                                    
                                                                                                    
                                                                                                    
                                                                                                    
                                                                                                    
                                                                                                    
                                                                                                    
                                                                                                    
                                                                                                    
                           
<?xpacket end="w"?></metadata>
<defs>
    <style>
      .cls-1 {
        fill: none;
        stroke: #212d36;
        stroke-width: 3px;
        fill-rule: evenodd;
        opacity: 0.5;
      }
    </style>
  </defs>
  <path class="cls-1" d="M876.489,1429.02l-42.337-42.49a8.5,8.5,0,0,0-12.078,0l-23.186,23.26a8.724,8.724,0,0,0,0,12.23l3.843,3.96H811.6l-8.274-8.41a2.4,2.4,0,0,1-.665-1.67,2.327,2.327,0,0,1,.665-1.64l3.062-2.98,14.549,14.7h13.956l-21.528-21.71,13.145-13.24a2.285,2.285,0,0,1,1.608-.7,2.251,2.251,0,0,1,1.608.66l42.339,42.48a2.269,2.269,0,0,1,.67,1.61,2.4,2.4,0,0,1-.732,1.61l-2.4,2.35v8.9l6.835-6.8A8.588,8.588,0,0,0,876.489,1429.02Zm-19.864.94H796.743a8.715,8.715,0,0,0-8.75,8.55v22.73H865.06v-22.73A8.445,8.445,0,0,0,856.625,1429.96ZM808.92,1453.5a6.168,6.168,0,0,1-4.3-1.75,6.235,6.235,0,1,1,0-8.99A6.227,6.227,0,1,1,808.92,1453.5Zm-20.927,17.91a8.754,8.754,0,0,0,8.75,8.59h59.882a8.487,8.487,0,0,0,8.437-8.59v-0.51H787.993v0.51Z" transform="translate(-786.5 -1382.5)"/>
</svg>
