<svg xmlns="http://www.w3.org/2000/svg" width="96.094" height="96.16" viewBox="0 0 96.094 96.16">
  <metadata><?xpacket begin="﻿" id="W5M0MpCehiHzreSzNTczkc9d"?>
<x:xmpmeta xmlns:x="adobe:ns:meta/" x:xmptk="Adobe XMP Core 5.6-c140 79.160451, 2017/05/06-01:08:21        ">
   <rdf:RDF xmlns:rdf="http://www.w3.org/1999/02/22-rdf-syntax-ns#">
      <rdf:Description rdf:about=""/>
   </rdf:RDF>
</x:xmpmeta>
                                                                                                    
                                                                                                    
                                                                                                    
                                                                                                    
                                                                                                    
                                                                                                    
                                                                                                    
                                                                                                    
                                                                                                    
                                                                                                    
                                                                                                    
                                                                                                    
                                                                                                    
                                                                                                    
                                                                                                    
                                                                                                    
                                                                                                    
                                                                                                    
                                                                                                    
                                                                                                    
                           
<?xpacket end="w"?></metadata>
<defs>
    <style>
      .cls-1 {
        fill: none;
        stroke: #212d36;
        stroke-width: 3px;
        fill-rule: evenodd;
        opacity: 0.5;
      }
    </style>
  </defs>
  <path class="cls-1" d="M532.729,1421.27h87.65a2.775,2.775,0,0,0,1.554-5.04l-43.826-30.74a2.685,2.685,0,0,0-3.107,0l-43.825,30.74A2.775,2.775,0,0,0,532.729,1421.27ZM576.554,1400a3.685,3.685,0,1,1-3.637,3.68A3.661,3.661,0,0,1,576.554,1400Zm43.825,63.06H532.728a2.74,2.74,0,0,0-2.727,2.76v9.57a2.749,2.749,0,0,0,2.727,2.77h87.651a2.749,2.749,0,0,0,2.728-2.77v-9.57A2.74,2.74,0,0,0,620.379,1463.06Zm-80.2-9.58a2.765,2.765,0,0,0,0,5.53h72.74a2.765,2.765,0,0,0,0-5.53h-1.736v-20.8H612.1a2.746,2.746,0,0,0,2.728-2.76v-3.13H591.183v3.13a2.747,2.747,0,0,0,2.728,2.76h0.91v20.8H584.737v-20.8h0.909a2.747,2.747,0,0,0,2.728-2.76v-3.13h-23.64v3.13a2.747,2.747,0,0,0,2.727,2.76h0.91v20.8H558.286v-20.8h0.91a2.747,2.747,0,0,0,2.728-2.76v-3.13h-23.64v3.13a2.746,2.746,0,0,0,2.728,2.76h0.908v20.8h-1.736Z" transform="translate(-528.5 -1383.5)"/>
</svg>
