<svg xmlns="http://www.w3.org/2000/svg" width="101" height="85" viewBox="0 0 101 85">
  <metadata><?xpacket begin="﻿" id="W5M0MpCehiHzreSzNTczkc9d"?>
<x:xmpmeta xmlns:x="adobe:ns:meta/" x:xmptk="Adobe XMP Core 5.6-c140 79.160451, 2017/05/06-01:08:21        ">
   <rdf:RDF xmlns:rdf="http://www.w3.org/1999/02/22-rdf-syntax-ns#">
      <rdf:Description rdf:about=""/>
   </rdf:RDF>
</x:xmpmeta>
                                                                                                    
                                                                                                    
                                                                                                    
                                                                                                    
                                                                                                    
                                                                                                    
                                                                                                    
                                                                                                    
                                                                                                    
                                                                                                    
                                                                                                    
                                                                                                    
                                                                                                    
                                                                                                    
                                                                                                    
                                                                                                    
                                                                                                    
                                                                                                    
                                                                                                    
                                                                                                    
                           
<?xpacket end="w"?></metadata>
<defs>
    <style>
      .cls-1 {
        fill: none;
        stroke: #212d36;
        stroke-width: 3px;
        fill-rule: evenodd;
        opacity: 0.5;
      }
    </style>
  </defs>
  <path class="cls-1" d="M334.465,1468.08h-6.5v-58.71h27.394l-11.6,18.15a1.946,1.946,0,0,0,.626,2.71,1.966,1.966,0,0,0,1.063.3,2,2,0,0,0,1.693-.91l10.063-15.74,10.063,15.74a2.014,2.014,0,0,0,2.756.61,1.946,1.946,0,0,0,.625-2.71l-11.6-18.15h0.147a3.05,3.05,0,1,0,0-6.1H336.4a10.1,10.1,0,0,0-5.409-3.91,7.061,7.061,0,0,0-14.047,0,10.091,10.091,0,0,0-5.409,3.91H288.749a3.05,3.05,0,1,0,0,6.1H288.9l-11.6,18.15a1.947,1.947,0,0,0,.625,2.71,1.969,1.969,0,0,0,1.064.3,2,2,0,0,0,1.692-.91l10.064-15.74,10.063,15.74a2.014,2.014,0,0,0,2.756.61,1.945,1.945,0,0,0,.625-2.71l-11.6-18.15h27.394v58.71h-6.5a6.988,6.988,0,0,0-7.044,6.94h35.081A6.988,6.988,0,0,0,334.465,1468.08Zm-29.024-35.45H276.033a1.058,1.058,0,0,0-1.066,1.05,15.771,15.771,0,0,0,31.539,0A1.058,1.058,0,0,0,305.441,1432.63Zm66.463,0H342.5a1.058,1.058,0,0,0-1.065,1.05,15.771,15.771,0,0,0,31.539,0A1.059,1.059,0,0,0,371.9,1432.63Z" transform="translate(-273.469 -1391.53)"/>
</svg>
