<svg xmlns="http://www.w3.org/2000/svg" width="16" height="16" viewBox="0 0 16 16">
  <metadata><?xpacket begin="﻿" id="W5M0MpCehiHzreSzNTczkc9d"?>
<x:xmpmeta xmlns:x="adobe:ns:meta/" x:xmptk="Adobe XMP Core 5.6-c140 79.160451, 2017/05/06-01:08:21        ">
   <rdf:RDF xmlns:rdf="http://www.w3.org/1999/02/22-rdf-syntax-ns#">
      <rdf:Description rdf:about=""/>
   </rdf:RDF>
</x:xmpmeta>
                                                                                                    
                                                                                                    
                                                                                                    
                                                                                                    
                                                                                                    
                                                                                                    
                                                                                                    
                                                                                                    
                                                                                                    
                                                                                                    
                                                                                                    
                                                                                                    
                                                                                                    
                                                                                                    
                                                                                                    
                                                                                                    
                                                                                                    
                                                                                                    
                                                                                                    
                                                                                                    
                           
<?xpacket end="w"?></metadata>
<defs>
    <style>
      .cls-1 {
        fill: #b5b9ba;
        fill-rule: evenodd;
      }
    </style>
  </defs>
  <path id="icon" class="cls-1" d="M43.651,566.365l-0.014-.036-2.978,2.978,2.21,2.21,0.017-.023A5.279,5.279,0,0,0,43.651,566.365Zm-6.52.908a0.879,0.879,0,0,1,.26-0.627l3.282-3.281-0.036-.014a5.257,5.257,0,0,0-6.832,6.7l-5.153,5.152A2.223,2.223,0,0,0,30.223,579h0a2.207,2.207,0,0,0,1.572-.651l5.151-5.15a5.253,5.253,0,0,0,1.8.315h0a5.212,5.212,0,0,0,3.163-1.057l0.023-.018L37.391,567.9A0.88,0.88,0,0,1,37.131,567.273Zm-6.445,10.108a0.754,0.754,0,1,1,0-1.067A0.755,0.755,0,0,1,30.686,577.381Zm4.755-8.443a0.317,0.317,0,0,1,.281-0.349l1.237-.134a0.316,0.316,0,0,1,.068.629l-1.237.135A0.317,0.317,0,0,1,35.442,568.938Zm3.656,1.587a0.317,0.317,0,0,1-.281.349l-1.237.134a0.316,0.316,0,0,1-.068-0.629l1.237-.134A0.316,0.316,0,0,1,39.1,570.525Zm-0.9-.895a0.317,0.317,0,0,1-.28.349l-1.237.134a0.316,0.316,0,1,1-.068-0.629l1.237-.134A0.316,0.316,0,0,1,38.2,569.63Z" transform="translate(-28 -563)"/>
</svg>
